Coordinates
version=1
nRows=13
nColumns=63
inDegrees=yes

Units are S.I. units (second, meters, Newtons, ...)
If the header above contains a line with 'inDegrees', this indicates whether rotational values are in degrees (yes) or radians (no).

endheader
time	pelvis_tilt	pelvis_list	pelvis_rotation	pelvis_tx	pelvis_ty	pelvis_tz	hip_flexion_r	hip_adduction_r	hip_rotation_r	knee_angle_r	knee_angle_r_beta	ankle_angle_r	subtalar_angle_r	mtp_angle_r	hip_flexion_l	hip_adduction_l	hip_rotation_l	knee_angle_l	knee_angle_l_beta	ankle_angle_l	subtalar_angle_l	mtp_angle_l	L5_S1_Flex_Ext	L5_S1_Lat_Bending	L5_S1_axial_rotation	L4_L5_Flex_Ext	L4_L5_Lat_Bending	L4_L5_axial_rotation	L3_L4_Flex_Ext	L3_L4_Lat_Bending	L3_L4_axial_rotation	L2_L3_Flex_Ext	L2_L3_Lat_Bending	L2_L3_axial_rotation	L1_L2_Flex_Ext	L1_L2_Lat_Bending	L1_L2_axial_rotation	L1_T12_Flex_Ext	L1_T12_Lat_Bending	L1_T12_axial_rotation	Abs_r3	Abs_r2	Abs_r1	Abs_t1	Abs_t2	neck_flexion	neck_bending	neck_rotation	arm_flex_r	arm_add_r	arm_rot_r	elbow_flex_r	pro_sup_r	wrist_flex_r	wrist_dev_r	arm_flex_l	arm_add_l	arm_rot_l	elbow_flex_l	pro_sup_l	wrist_flex_l	wrist_dev_l
3.000000	1.106695	-8.711294	89.015209	0.202687	0.943748	0.329773	3.839172	5.273742	4.282490	17.198867	0.300177	32.454430	-2.541379	0.000000	2.793881	-4.070676	0.505979	15.011382	0.261998	33.117400	-9.525455	0.000000	0.013639	0.124135	-1.015325	0.025329	0.165099	-1.078782	0.022408	0.301821	-1.078782	0.015588	0.301821	-0.888409	0.012665	0.253135	-0.824951	0.007793	0.192285	-0.761493	0.097422	1.404236	-5.646931	0.000000	0.000000	26.573937	3.921730	2.842189	-20.737545	-15.523441	3.667256	99.667606	86.857033	2.841098	14.049460	-22.919937	-19.815613	1.899507	107.315941	86.780237	-8.066902	-6.524232
3.016667	0.849917	-8.772608	88.760526	0.202244	0.945099	0.328979	3.602877	4.929256	4.173826	16.680946	0.291137	32.128810	-2.045437	0.000000	2.793050	-3.844649	-0.063914	15.047022	0.262620	32.814925	-8.999815	0.000000	0.016629	0.116260	-1.218622	0.030881	0.154626	-1.294785	0.027319	0.282675	-1.294785	0.019005	0.282675	-1.066294	0.015441	0.237078	-0.990130	0.009502	0.180087	-0.913966	0.118778	1.315158	-6.777607	0.000000	0.000000	26.491511	4.576325	4.391522	-21.406574	-16.291454	4.010100	101.345445	87.141291	3.394861	14.441608	-24.769430	-19.297508	-0.465148	111.958442	85.915570	-6.590599	-5.008324
3.033333	0.573820	-8.805740	88.460265	0.201761	0.946487	0.328185	3.306307	4.534930	3.972675	16.113793	0.281239	31.812898	-1.342317	0.000000	2.750811	-3.604501	-0.735689	15.077293	0.263148	32.478581	-8.385093	0.000000	0.018575	0.107975	-1.417777	0.034496	0.143607	-1.506388	0.030518	0.262531	-1.506388	0.021230	0.262531	-1.240555	0.017249	0.220183	-1.151944	0.010614	0.167253	-1.063333	0.132682	1.221436	-7.885252	0.000000	0.000000	26.352768	5.242839	5.971747	-22.070295	-17.084082	4.268261	103.115737	87.349937	3.836551	15.145959	-26.621694	-18.678820	-2.969768	116.555027	85.069197	-5.217199	-3.412455
3.050000	0.279734	-8.805535	88.177656	0.201217	0.947855	0.327368	2.947365	4.107301	3.717635	15.510855	0.270715	31.507405	-0.564883	0.000000	2.675006	-3.336653	-1.326269	15.109866	0.263717	32.088491	-7.840543	0.000000	0.019537	0.097867	-1.621714	0.036281	0.130163	-1.723071	0.032097	0.237953	-1.723071	0.022328	0.237953	-1.419000	0.018142	0.199570	-1.317643	0.011163	0.151596	-1.216286	0.139548	1.107088	-9.019487	0.000000	0.000000	26.132060	5.946848	7.579211	-22.722237	-17.895693	4.474660	104.881018	87.524848	4.270768	15.853183	-28.409436	-17.993989	-5.459874	120.998654	84.068556	-4.216467	-1.730704
3.066667	-0.025953	-8.793574	87.908398	0.200639	0.949124	0.326525	2.558212	3.660450	3.450488	14.890308	0.259885	31.213527	0.236249	0.000000	2.583465	-3.049281	-1.836507	15.133606	0.264131	31.657008	-7.352038	0.000000	0.022363	0.086496	-1.816781	0.041530	0.115040	-1.930329	0.036740	0.210306	-1.930329	0.025558	0.210306	-1.589683	0.020766	0.176382	-1.476134	0.012778	0.133982	-1.362585	0.159735	0.978459	-10.104388	0.000000	0.000000	25.849845	6.654030	9.146629	-23.411092	-18.696632	4.594786	106.611701	87.677861	4.729548	16.525935	-30.029473	-17.264195	-7.821111	125.184153	82.969178	-3.592021	0.174039
3.083333	-0.331396	-8.761019	87.643759	0.200093	0.950264	0.325654	2.150386	3.211993	3.188059	14.293299	0.249465	30.944323	1.042759	0.000000	2.463745	-2.758306	-2.297568	15.140705	0.264255	31.202712	-6.891836	0.000000	0.025592	0.073440	-1.990176	0.047527	0.097676	-2.114562	0.042045	0.178563	-2.114562	0.029249	0.178563	-1.741404	0.023765	0.149759	-1.617018	0.014623	0.113759	-1.492632	0.182801	0.830771	-11.068762	0.000000	0.000000	25.492795	7.366224	10.611432	-24.132537	-19.469065	4.636156	108.218544	87.824683	5.279370	17.069794	-31.372766	-16.522336	-9.947744	129.018555	81.765868	-3.396707	2.428646
3.100000	-0.630672	-8.727333	87.415826	0.199555	0.951218	0.324755	1.746445	2.774362	2.925884	13.726490	0.239572	30.692371	1.795219	0.000000	2.335369	-2.461263	-2.609211	15.118763	0.263872	30.717118	-6.551215	0.000000	0.031375	0.058722	-2.142790	0.058267	0.078100	-2.276715	0.051547	0.142776	-2.276715	0.035859	0.142776	-1.874941	0.029135	0.119745	-1.741017	0.017928	0.090960	-1.607093	0.224112	0.664272	-11.917557	0.000000	0.000000	25.108035	8.013875	11.880135	-24.859235	-20.195045	4.638536	109.611336	87.975881	5.905719	17.477168	-32.398489	-15.792644	-11.776244	132.369797	80.407715	-3.547791	4.810257
3.116667	-0.908807	-8.685704	87.240083	0.199051	0.951952	0.323829	1.344763	2.374242	2.709053	13.200927	0.230400	30.460174	2.420708	0.000000	2.197064	-2.174339	-2.741962	15.077496	0.263152	30.238694	-6.345202	0.000000	0.037486	0.043160	-2.276079	0.069615	0.057403	-2.418334	0.061586	0.104939	-2.418334	0.042843	0.104939	-1.991569	0.034809	0.088012	-1.849314	0.021419	0.066855	-1.707059	0.267759	0.488235	-12.658869	0.000000	0.000000	24.716976	8.612238	12.954074	-25.534366	-20.828240	4.612634	110.692285	88.142686	6.648629	17.812287	-33.104228	-15.079331	-13.333193	135.154103	78.937846	-3.915311	7.180214
3.133333	-1.137326	-8.629412	87.135868	0.198544	0.952451	0.322914	0.950697	2.037252	2.487775	12.734618	0.222261	30.248742	2.933714	0.000000	2.045431	-1.922683	-2.664123	15.018469	0.262122	29.790608	-6.313351	0.000000	0.041731	0.030140	-2.378891	0.077498	0.040087	-2.527572	0.068559	0.073283	-2.527572	0.047694	0.073283	-2.081530	0.038751	0.061462	-1.932849	0.023845	0.046688	-1.784168	0.298077	0.340955	-13.230678	0.000000	0.000000	24.337359	9.068506	13.718234	-26.148682	-21.329288	4.527012	111.407431	88.273997	7.357620	18.095587	-33.397313	-14.440610	-14.462103	137.238597	77.462885	-4.558056	9.289585
3.150000	-1.301409	-8.577663	87.131919	0.198035	0.952661	0.322031	0.593699	1.787990	2.284335	12.339870	0.215371	30.070678	3.264911	0.000000	1.910585	-1.731297	-2.417998	14.955094	0.261016	29.435784	-6.354388	0.000000	0.046336	0.021718	-2.480487	0.086051	0.028884	-2.635517	0.076126	0.052804	-2.635517	0.052958	0.052804	-2.170426	0.043028	0.044287	-2.015395	0.026477	0.033641	-1.860365	0.330976	0.245674	-13.795723	0.000000	0.000000	23.988145	9.459675	14.383066	-26.547801	-21.715645	4.527747	111.674933	88.337907	8.010554	18.594923	-33.454389	-13.795090	-15.440325	138.572421	76.157757	-5.180794	10.838852
3.166667	-1.385089	-8.516997	87.203799	0.197513	0.952589	0.321226	0.282262	1.638448	2.090206	12.054867	0.210397	29.946559	3.439779	0.000000	1.773477	-1.610412	-2.017191	14.883653	0.259769	29.182221	-6.539040	0.000000	0.048545	0.020278	-2.569967	0.090153	0.026970	-2.730590	0.079755	0.049305	-2.730590	0.055482	0.049305	-2.248721	0.045079	0.041352	-2.088098	0.027739	0.031411	-1.927475	0.346753	0.229393	-14.293386	0.000000	0.000000	23.664097	9.724712	14.879324	-26.710493	-21.973691	4.595517	111.468687	88.365797	8.515615	19.304631	-33.234731	-13.163150	-16.197004	139.072727	75.280693	-5.911961	11.670699
3.183333	-1.397710	-8.458998	87.373183	0.196986	0.952250	0.320521	0.024191	1.578623	1.879188	11.865739	0.207096	29.871355	3.468239	0.000000	1.649747	-1.557959	-1.489343	14.805067	0.258397	29.037270	-6.791765	0.000000	0.050190	0.024264	-2.661980	0.093207	0.032271	-2.828353	0.082456	0.058995	-2.828353	0.057362	0.058995	-2.329232	0.046606	0.049479	-2.162858	0.028678	0.037584	-1.996485	0.358499	0.274476	-14.805132	0.000000	0.000000	23.363709	9.931939	15.263584	-26.569171	-22.098251	4.806998	110.736448	88.379441	8.854516	20.203288	-32.813305	-12.510822	-16.861358	138.736502	74.803242	-6.567174	11.833452
3.200000	-1.339334	-8.398003	87.609215	0.196475	0.951676	0.319938	-0.171283	1.609596	1.685195	11.798677	0.205926	29.855324	3.350242	0.000000	1.531945	-1.571391	-0.856666	14.725804	0.257014	29.006793	-7.142590	0.000000	0.049305	0.034651	-2.748661	0.091564	0.046085	-2.920452	0.081003	0.084249	-2.920452	0.056350	0.084249	-2.405078	0.045784	0.070659	-2.233287	0.028173	0.053674	-2.061496	0.352178	0.391974	-15.287228	0.000000	0.000000	23.089355	10.057693	15.570974	-26.131689	-22.091759	5.135027	109.532502	88.399316	9.022787	21.326983	-32.187318	-11.884189	-17.373002	137.538690	74.803563	-7.243941	11.298036
